<svg id="Camada_1" data-name="Camada 1" xmlns="http://www.w3.org/2000/svg" viewBox="0 0 808.67 172.67"><defs><style>.cls-1{fill:#29609d;}</style></defs><path class="cls-1" d="M26.06,120.1V169H3.65V50.34h122V67.86H26.06v34.71h92.85V120.1Z"/><path class="cls-1" d="M174.17,169a61,61,0,0,1-17.18-2.1,31.42,31.42,0,0,1-11.55-5.9,22.21,22.21,0,0,1-6.48-9,31.93,31.93,0,0,1-2-11.63V79a31.92,31.92,0,0,1,2-11.62,22.24,22.24,0,0,1,6.48-9A31.56,31.56,0,0,1,157,52.45a60.56,60.56,0,0,1,17.18-2.11h78.36a60.61,60.61,0,0,1,17.18,2.11,31.43,31.43,0,0,1,11.54,5.89,22.27,22.27,0,0,1,6.49,9,31.92,31.92,0,0,1,2,11.62v61.34a31.93,31.93,0,0,1-2,11.63,22.24,22.24,0,0,1-6.49,9,31.29,31.29,0,0,1-11.54,5.9,61,61,0,0,1-17.18,2.1Zm93.18-90.14q0-10.95-14.82-11H174.17q-14.82,0-14.82,11v61.67q0,10.95,14.82,10.95h78.36q14.82,0,14.82-10.95Z"/><path class="cls-1" d="M347.22,169a61.08,61.08,0,0,1-17.19-2.1,31.45,31.45,0,0,1-11.54-5.9,22.24,22.24,0,0,1-6.49-9,32.15,32.15,0,0,1-2-11.63V79a32.13,32.13,0,0,1,2-11.62,22.27,22.27,0,0,1,6.49-9A31.59,31.59,0,0,1,330,52.45a60.69,60.69,0,0,1,17.19-2.11h95.54V67.86H347.22q-14.84,0-14.83,11v61.67q0,10.95,14.83,10.95h95.54V169Z"/><path class="cls-1" d="M805,62.54H658.65a54.68,54.68,0,0,0-15.42,1.89,28.34,28.34,0,0,0-10.35,5.29,20,20,0,0,0-5.82,8.09,28.65,28.65,0,0,0-1.82,10.43v6.2a28.65,28.65,0,0,0,1.82,10.43,20,20,0,0,0,5.82,8.09,28.34,28.34,0,0,0,10.35,5.29,54.68,54.68,0,0,0,15.42,1.89h62.59q13.29,0,13.3,9.82v13.46q0,9.83-13.3,9.82H628.72V169h92.52a54.32,54.32,0,0,0,15.42-1.89A28,28,0,0,0,747,161.78a19.9,19.9,0,0,0,5.82-8.08,28.69,28.69,0,0,0,1.81-10.43V130.11a28.72,28.72,0,0,0-1.81-10.43A19.9,19.9,0,0,0,747,111.6a28.19,28.19,0,0,0-10.35-5.29,54.68,54.68,0,0,0-15.42-1.89H658.65q-13.3,0-13.3-9.83v-6.5q0-9.82,13.3-9.83H760V99.19Z"/><polygon class="cls-1" points="450.68 50.34 476.12 50.34 538.13 145.88 617.59 22.83 759.99 22.83 759.99 3.7 805.01 40.35 630.79 40.35 545.88 168.96 529.54 168.96 450.68 50.34"/></svg>