<svg xmlns="http://www.w3.org/2000/svg" viewBox="0 0 73.24 73.51"><defs><style>.cls-1{fill:#28609b;}</style></defs><g id="Camada_2" data-name="Camada 2"><rect class="cls-1" x="16.92" y="13.09" width="17.18" height="3.49"/><rect class="cls-1" x="16.92" y="30.39" width="17.18" height="3.49"/><rect class="cls-1" x="16.92" y="39.01" width="17.18" height="3.49"/><rect class="cls-1" x="16.92" y="47.63" width="17.18" height="3.49"/><rect class="cls-1" x="16.92" y="21.76" width="18.81" height="3.49"/><polygon class="cls-1" points="53.66 40.36 50.71 37.41 48.25 39.88 53.66 45.29 63.38 35.57 60.91 33.1 53.66 40.36"/><path class="cls-1" d="M57.5,21.26V14.12L43.39,0H8.24V8.51H0v65H49.27V65H57.5V56a17.48,17.48,0,0,0,0-34.78ZM44.41,6l7.13,7.13H44.41ZM45.77,70H3.49V12H8.24V65H45.77ZM54,61.5H11.73v-58H40.92V16.58H54v4.68A17.48,17.48,0,0,0,54,56Zm1.75-8.86a14,14,0,1,1,14-14A14,14,0,0,1,55.76,52.64Z"/></g></svg>