<svg id="Camada_1" data-name="Camada 1" xmlns="http://www.w3.org/2000/svg" viewBox="0 0 364.29 361.3"><defs><style>.cls-1{fill:#285fae;}</style></defs><path class="cls-1" d="M19.51,303.71l9-2.48q21.64-6,43.26-12a11.32,11.32,0,0,1,3.14-.48,9.84,9.84,0,0,1,4.95,1.41,149.93,149.93,0,0,0,61,18.88c4.93.49,12.61.54,15.69.54a150.57,150.57,0,0,0,43.86-6.83,179.11,179.11,0,0,0,30.57-13,154.86,154.86,0,0,0,54.66-51.6,178.81,178.81,0,0,0,19.44-45,153.35,153.35,0,0,0,4.62-37.33c0-2.56,0-7.3-.13-12.09a5.06,5.06,0,0,1-.1-.68C303.7,84.73,274,41.61,221.3,15,205.75,7.09,188.15,2.29,169,.71a14.46,14.46,0,0,1-2.32-.47c-.31-.09-.61-.17-.92-.24L144.47,0c-2.29.4-4.8.75-7.31,1.11A144.9,144.9,0,0,0,121.29,4C59.37,19.87,20.1,58.93,4.57,120.06c-9.46,37.27-4.22,74.61,15.6,111a11.09,11.09,0,0,1,.63,7.6c-5,18.36-10,36.69-15.13,55L1.52,308.6a.07.07,0,0,1,0,0l4.15-1.14C10.37,306.23,14.94,305,19.51,303.71ZM74.76,48.49c36.53-27.88,84.3-34.69,127.77-18.24s74.77,53.21,83.68,98.3C300.53,201,253.67,271.49,181.75,285.8a139.55,139.55,0,0,1-27.31,2.75c-25.07,0-49-7.16-71.52-21.43A8.1,8.1,0,0,0,75.47,266c-9.8,2.86-19.51,5.53-29.78,8.35l-13.54,3.73.61-2.22c1.07-3.87,2.1-7.68,3.12-11.46,2.62-9.67,5.1-18.81,7.86-28A11.21,11.21,0,0,0,42.31,226,133.46,133.46,0,0,1,74.76,48.49Z"/><path class="cls-1" d="M173.7,322.12A111.52,111.52,0,0,1,141,323a130.64,130.64,0,0,0,99,38.08,126.23,126.23,0,0,0,55.72-15.81c3.3-1.85,6.29-2.15,10.31-1,14.44,4.08,28.9,8.07,43.67,12.14l13.3,3.67c-.21-.91-.41-1.74-.63-2.55l-4-14.24c-3.88-13.95-7.76-27.9-11.51-41.89a10.6,10.6,0,0,1,.78-7.2,133.1,133.1,0,0,0,15.84-50.94,15.54,15.54,0,0,1,.48-2.33c.09-.31.17-.61.24-.92l0-19.68c-.49-2.44-.93-5.15-1.38-7.86a134.35,134.35,0,0,0-3.54-17.12h0c-7.49-25-20-45.6-37.32-61.37,1.63,11.9,2,25.92.73,33.11A109.17,109.17,0,0,1,326,288.53c-2.68,4.26-3.15,7.45-1.72,11.76,2,6,3.6,12.12,5.31,18.58.72,2.74,1.46,5.54,2.25,8.4l.61,2.22-2.22-.61-8.47-2.34c-7-1.91-13.53-3.71-20.12-5.7a9.18,9.18,0,0,0-8.53,1.22C255.48,346.2,209.78,346.22,173.7,322.12Z"/><path class="cls-1" d="M81.63,139.09a14.67,14.67,0,0,1,.5,29.34,14.67,14.67,0,0,1-.5-29.34Z"/><path class="cls-1" d="M243.23,153.78a14.64,14.64,0,0,1-14.52,14.66,14.67,14.67,0,1,1,14.52-14.66Z"/><path class="cls-1" d="M140.83,152.75a14.5,14.5,0,1,1,28.93,2.05,14.5,14.5,0,1,1-28.93-2.05Z"/></svg>