<svg id="Camada_1" data-name="Camada 1" xmlns="http://www.w3.org/2000/svg" viewBox="0 0 455.29 372.5"><defs><style>.cls-1{fill:#285fae;}</style></defs><path class="cls-1" d="M455.29,0V372.5H0V0ZM24.73,347.37h405.4V74.72H24.73ZM430.28,25.13H24.75V49.44H430.28Z"/><path class="cls-1" d="M196.85,102.71V319.37H389.41V301H364V176.78H314.24V127.64H246.18v98.83H215V102.71Zm117.79,93.11h30.68V301H314.64ZM265,146h30.69V300.84H265Zm-49.75,99.46H246v55.46H215.29Z"/><rect class="cls-1" x="59.15" y="102.7" width="93.25" height="18.02"/><rect class="cls-1" x="59.19" y="152.41" width="93.32" height="18.09"/><rect class="cls-1" x="59.1" y="202.05" width="93.29" height="17.99"/><rect class="cls-1" x="59.24" y="251.79" width="93.28" height="17.99"/><rect class="cls-1" x="59.09" y="301.39" width="93.29" height="17.98"/></svg>