<svg id="Camada_1" data-name="Camada 1" xmlns="http://www.w3.org/2000/svg" viewBox="0 0 369.35 369.12"><defs><style>.cls-1{fill:#285fae;}</style></defs><path class="cls-1" d="M25.37,150.64q-11.46,8-23,16A4.92,4.92,0,0,0,0,171.4q.11,85.18.06,170.37v27.35H369.35V168.3l-11.77-8.24q-20-14-40.1-27.93c-2.5-1.74-2.71-3.86-2.7-6.06q0-47.68,0-95.35V0H54.62V28.68q0,48.62.06,97.23a7.22,7.22,0,0,1-3.49,6.75Q38.24,141.6,25.37,150.64ZM38.09,349.1l101.78-82.72,27.31,17.06,4.35,2.69c3.63,2.25,7.39,4.56,11,7,1.68,1.11,2.64,1.13,4.33,0,7.36-4.69,14.77-9.31,22.18-13.94,5.81-3.63,11.61-7.25,17.4-10.91,1.94-1.23,3.59-1.62,5.89.26q37.11,30.27,74.3,60.46l20.19,16.4c.35.29.69.59,1.14,1l3,2.68ZM315,154.41,341.61,173,315,189.66Zm34.37,37.09V338.26L247.27,255.31ZM74.38,57.55V24.45c0-.81.05-1.63.1-2.5l.13-2.28H294.75l.14,2.14c.07.88.13,1.77.13,2.66V65.84q0,66.18.05,132.37a6.37,6.37,0,0,1-3.38,6.09c-34,21.15-68.8,42.92-103.52,64.73a6.44,6.44,0,0,1-3.45,1.17,6.51,6.51,0,0,1-3.48-1.19c-33-20.74-66.89-41.91-103.54-64.74a6.39,6.39,0,0,1-3.39-6.08Q74.41,127.87,74.38,57.55Zm47.8,197.75L20,338.38v-147l1.61,1ZM54.37,154.48V189.6L27.85,173.05Z"/><path class="cls-1" d="M195.28,123.76h-.45q-5.19,14.17-18.83,14.17a20.54,20.54,0,0,1-16.51-7.42q-6.27-7.41-6.26-20.54,0-17,8.68-27.63T182.82,71.7q11,0,13.87,8.68H197l.74-7.34h16.69q-3.33,31.59-3.34,41.31,0,10.38,5.64,10.38,5.94,0,9.79-7.86t3.86-20.55q0-17.35-11.05-28.44T188.46,56.8q-21.21,0-35.27,14.79t-14.05,36.08q0,20.63,12.42,32.48T185.86,152a72.18,72.18,0,0,0,30.56-6.38v14.17q-12.69,5.41-32.64,5.41-27.36,0-44.53-15.69t-17.17-42.16q0-27,18.32-45.38t47.16-18.4q26.72,0,43.2,14.28t16.51,37.64q0,19.2-10.09,30.81t-25,11.61q-7.35,0-11.94-3.93A14,14,0,0,1,195.28,123.76Zm-9.87-39.15q-6.67,0-10.86,7.6a35.83,35.83,0,0,0-4.19,17.61q0,7.13,2.85,11.09a8.73,8.73,0,0,0,7.38,4q7,0,11-7.49t4-20q0-5.92-2.78-9.34A9,9,0,0,0,185.41,84.61Z"/></svg>