<svg xmlns="http://www.w3.org/2000/svg" viewBox="0 0 88.35 59.98"><defs><style>.cls-1{fill:#28609b;}</style></defs><g id="Camada_2" data-name="Camada 2"><path class="cls-1" d="M12.61,32.52A13.71,13.71,0,0,1,8.78,13a13.73,13.73,0,0,1,20.16-2.13C31.73,4,36.75,0,44.26,0S56.62,4.06,59.4,10.94A13.57,13.57,0,0,1,71.26,7.76a13.2,13.2,0,0,1,8.23,5.36c3.94,5.41,3.7,14.17-3.72,19.38l.74.38c7.55,3.65,11.5,9.67,11.8,18,.06,1.62,0,3.24,0,4.85S87.8,58,86.1,58H67.79c-.6,1.8-.9,2-2.7,2h-42c-1.67,0-2.07-.32-2.5-2H2.43c-2,0-2.51-.45-2.42-2.44.13-3.1,0-6.28.67-9.28,1.37-6.17,5.23-10.55,11-13.25ZM64.28,56.61c0-2.22.07-4.38,0-6.54C64,42.67,60.51,37.22,54,33.72c-3.74-2-7.8-2.13-11.87-1.91-7.92.41-13.49,4.32-16.69,11.56A16.83,16.83,0,0,0,24,50.27v6.34ZM31.53,15.8A12.63,12.63,0,1,0,44.14,3.24,12.66,12.66,0,0,0,31.53,15.8ZM19.75,31.17a10.09,10.09,0,0,0,9.8-7.27,3.94,3.94,0,0,0-.08-1.8c-.39-2-.82-4.06-1.26-6.08a3.82,3.82,0,0,0-.55-1.48,10.2,10.2,0,1,0-7.91,16.63ZM84.91,54.59c.64-7.16-1.15-13.21-7.29-17.31-4.81-3.21-10-3.59-15.56-1.45,4.84,5.46,6,11.85,5.46,18.76ZM26.27,35.8c-6.05-2.22-11.54-1.63-16.5,2.14-5.49,4.18-7,10-6.36,16.62H20.8C20.23,47.65,21.44,41.29,26.27,35.8Zm42.26-4.64a10.17,10.17,0,0,0,4.52-19.29,10,10,0,0,0-12.3,2.57A3.79,3.79,0,0,0,60.11,16c-.47,2.06-.9,4.13-1.31,6.2a3.87,3.87,0,0,0,0,1.69A10,10,0,0,0,68.53,31.16ZM32.44,26.74,27.3,32.65A1.88,1.88,0,0,0,30,32.51,10.14,10.14,0,0,1,32.42,31c1.07-.56,2.18-1,3.3-1.53Zm20.28,2.64a55,55,0,0,1,5.52,3.13c1.16.82,2,.77,2.78.14l-5.15-5.9Z"/></g></svg>