<svg id="Camada_1" data-name="Camada 1" xmlns="http://www.w3.org/2000/svg" viewBox="0 0 385.04 340.14"><defs><style>.cls-1{fill:#285fae;}</style></defs><path class="cls-1" d="M201.5,147.35v13.8h-9.29V147.73a51.77,51.77,0,0,1-24.05-5.86V124.25q3.69,3,11,5.54a50.65,50.65,0,0,0,13,2.92V109.56q-14.9-5.53-20.32-12a23.59,23.59,0,0,1-5.45-15.74,23.13,23.13,0,0,1,7.07-17q7.05-7,18.7-8.17V44.79h9.29V56.37q13.42.65,20,4.33V77.87a48,48,0,0,0-20-6.61V95.37q13.94,5,20,11.48a22.08,22.08,0,0,1,6,15.62q0,10.56-6.74,17T201.5,147.35Zm-9.29-55.67V71.51q-8.85,1.59-8.84,9.23Q183.37,87.3,192.21,91.68Zm9.29,21.5v19.28q9.1-1.4,9.09-9.1Q210.59,117.14,201.5,113.18Z"/><path class="cls-1" d="M382.32,234.57a37.23,37.23,0,0,0-46.55-13.16c-10.41,4.76-20.91,9.76-31,14.59-4.81,2.29-9.63,4.59-14.45,6.86l-7.61,3.55-2.58,1.2q-.16-.23-.3-.45c-9.42-14.91-23.29-22.62-41.22-22.92-5.17-.09-10.33-.26-15.49-.44-7.69-.27-15.57-.55-23.47-.5-14.22.2-27.46-3.18-40.56-10-20.29-10.5-42.41-12.57-65.72-6.16-4.31,1.19-8.55,2.77-12.65,4.3l-3.5,1.3v-.26c0-1.8,0-3.59,0-5.38.18-4.65-.5-7.44-2.28-9.34s-4.43-2.74-8.93-2.86q-26-.7-52-1.29c-7.21-.24-10.42,2.95-10.64,10.09-.11,3.79-.2,7.58-.29,11.37-.08,3.12-.15,6.24-.24,9.36l-.87,31.2Q.95,290,0,324.27c-.23,8.32,4.82,10.24,9.1,10.38,16.2.54,33.42,1,55.85,1.42a8.72,8.72,0,0,0,6.74-2.54A7.1,7.1,0,0,0,73.6,328c-.34-4.73,1.89-6.56,6.37-8.45a46,46,0,0,0,5-2.59c.86-.49,1.71-1,2.59-1.45a23.54,23.54,0,0,1,18-1.94l.66.18c8.33,2.35,16.65,4.69,25,6.95q25.35,6.85,50.72,13.66l21.36,5.74.43.06,18.12,0,1.31-.29c.89-.21,1.78-.41,2.68-.55,9.59-1.5,20.62-3.6,30.19-9.74q48.76-31.31,97.35-62.85l25.9-16.75c3.3-2.14,5.07-4.28,5.58-6.74S384.58,238,382.32,234.57Zm-166,27.31c-7.21-.2-14.43-.4-21.64-.53-6-.09-10,3.15-10.18,8.33a8.11,8.11,0,0,0,2.15,6,10.42,10.42,0,0,0,7.51,3q41.24,1.23,82.47,2.26a9.65,9.65,0,0,0,7.28-2.4c1.75-1.72,2.61-4.29,2.58-7.63,0-1.66-.17-3.32-.35-5.14,0-.49-.09-1-.14-1.5l22.56-10.7q16.69-7.92,33.42-15.79c7.46-3.5,14.69-2.87,21,1.82-.64.43-1.26.86-1.89,1.26Q345.47,251,329.84,261.12c-26.71,17.35-54.33,35.29-81.67,52.65-12.94,8.22-28.32,11-44.48,8-12.4-2.29-24.82-5.83-36.84-9.25-4.42-1.26-8.84-2.52-13.28-3.72-14.32-3.89-27.6-7.64-40.6-11.48a50.35,50.35,0,0,0-14.15-2.16,42.31,42.31,0,0,0-22.14,6.32c-.7.41-1.43.76-2.17,1.1v0L75,284.45c.46-16,.93-31.91,1.29-47.86a4.91,4.91,0,0,1,3-4.86c23.55-13.07,47.61-14.09,71.52-3l3.95,1.85c9.12,4.3,18.54,8.75,29.16,9.45,7.31.48,14.74.67,21.94.85,3,.08,6,.15,9,.25s6.11.17,9.16.25c6,.16,11.92.31,17.88.61,11.88.59,22.41,9.43,25.75,21.32ZM59.53,212,56.62,317.8H17.73L20.64,212Z"/><path class="cls-1" d="M197,205.94A103.06,103.06,0,0,1,93.85,103C93.87,46.18,140.17,0,197,0A103,103,0,1,1,197,205.94Zm-.14-14.12c48.72.19,88.74-39.43,89-88.13a88.86,88.86,0,1,0-89,88.13Z"/></svg>