<svg id="Camada_1" data-name="Camada 1" xmlns="http://www.w3.org/2000/svg" viewBox="0 0 359.32 359.33"><defs><style>.cls-1{fill:#285fae;}</style></defs><path class="cls-1" d="M0,51.64A51.82,51.82,0,0,1,52.36,0c28.22.14,51.23,23.55,51.16,52.07A51.76,51.76,0,0,1,0,51.64ZM51.88,85.25A33.49,33.49,0,1,0,18.27,51.7,33.55,33.55,0,0,0,51.88,85.25Z"/><path class="cls-1" d="M127.9,51.64A51.81,51.81,0,0,1,180.25,0c28.23.14,51.24,23.55,51.17,52.07a51.76,51.76,0,0,1-103.52-.43Z"/><path class="cls-1" d="M307.32,103.53A51.77,51.77,0,1,1,308.37,0c28.2.24,51.1,23.73,50.95,52.28C359.17,80.52,335.66,103.69,307.32,103.53Zm.21-85.26a33.49,33.49,0,1,0,33.52,33.67A33.54,33.54,0,0,0,307.53,18.27Z"/><path class="cls-1" d="M51.91,127.9c28.45,0,51.65,23.34,51.61,52a51.9,51.9,0,0,1-51.71,51.53C23.34,231.38.07,208.29,0,180A51.81,51.81,0,0,1,51.91,127.9Z"/><path class="cls-1" d="M179.5,231.43a51.77,51.77,0,1,1,.89-103.53c28.21.2,51.16,23.67,51,52.21C231.3,208.36,207.83,231.56,179.5,231.43Zm0-18.29a33.49,33.49,0,1,0-33.36-33.8A33.54,33.54,0,0,0,179.53,213.14Z"/><path class="cls-1" d="M255.8,179.53a51.81,51.81,0,0,1,52.36-51.63c28.23.14,51.23,23.56,51.16,52.08a51.76,51.76,0,0,1-103.52-.45Z"/><path class="cls-1" d="M0,307.4A51.81,51.81,0,0,1,52.4,255.8c28.22.15,51.21,23.59,51.13,52.11A51.76,51.76,0,0,1,0,307.4Zm85.24.2a33.49,33.49,0,1,0-33.34,33.45A33.6,33.6,0,0,0,85.25,307.6Z"/><path class="cls-1" d="M231.42,307.85a51.76,51.76,0,1,1-51.19-52.05C208.46,255.93,231.48,279.33,231.42,307.85Z"/><path class="cls-1" d="M307.72,255.8c28.44,0,51.64,23.35,51.6,52a51.9,51.9,0,0,1-51.73,51.52c-28.47-.05-51.72-23.15-51.79-51.46A51.81,51.81,0,0,1,307.72,255.8Zm-.18,85.25a33.49,33.49,0,1,0-33.47-33.7A33.55,33.55,0,0,0,307.54,341.05Z"/></svg>