<svg id="Camada_1" data-name="Camada 1" xmlns="http://www.w3.org/2000/svg" viewBox="0 0 369.35 363.43"><defs><style>.cls-1{fill:#285fae;}</style></defs><path class="cls-1" d="M369.35,171.45c-5.65,6.05-10.9,11.7-16.36,17.56l-24.53-22.69V363.43H40.9V166.29L16.37,189,0,171.45,184.68,0ZM184.77,32.9c-.72.57-1,.78-1.3,1Q125.27,88,67.15,142.06A8.38,8.38,0,0,0,65,147.57q-.15,93.87-.08,187.72c0,1.33.12,2.66.19,4.07H304.2c.06-1.35.16-2.46.16-3.57q0-94.23.06-188.46a7.18,7.18,0,0,0-2.59-5.81q-45.87-42.47-91.64-85Z"/></svg>