<svg id="Camada_1" data-name="Camada 1" xmlns="http://www.w3.org/2000/svg" viewBox="0 0 298.89 382.31"><defs><style>.cls-1{fill:#285fae;}</style></defs><path class="cls-1" d="M0,382.31V22H70.89V0H227.72V21.85h71.17V382.31ZM227.92,66.46H70.86V44.67H22.65v315H276.26v-315H227.92Zm-22.59-44H93.57V44.12H205.33Z"/><path class="cls-1" d="M115.3,155H56.38V96.06H115.3Zm-44-14.89H100.4V111H71.27Z"/><path class="cls-1" d="M115.3,247.59H56.38V188.67H115.3Zm-44-14.89H100.4V203.57H71.27Z"/><polygon class="cls-1" points="76.05 336.86 53.34 314.14 63.87 303.61 76.05 315.79 107.8 284.04 118.34 294.57 76.05 336.86"/><rect class="cls-1" x="149.44" y="116.53" width="99.93" height="19.86"/><rect class="cls-1" x="149.44" y="208.2" width="99.93" height="19.86"/><rect class="cls-1" x="149.44" y="297.88" width="99.93" height="19.86"/></svg>