<svg xmlns="http://www.w3.org/2000/svg" viewBox="0 0 73.24 73.51"><defs><style>.cls-1{fill:#28609b;}</style></defs><g id="Camada_2" data-name="Camada 2"><path class="cls-1" d="M-.29,30.7l7-1.43a12.83,12.83,0,0,1,1.91-.36c.87-.05,1.18-.52,1.44-1.28A35.11,35.11,0,0,1,11.64,24a.92.92,0,0,0-.07-1c-1.62-2.39-3.21-4.79-4.8-7.19-.15-.21-.29-.44-.4-.62L15,6.51l2.63,1.74c1.74,1.16,3.48,2.31,5.21,3.49a.9.9,0,0,0,1,.06c1.36-.6,2.72-1.19,4.11-1.71a1,1,0,0,0,.76-.9C29.27,6.11,29.89,3,30.5-.09c.24,0,.44-.05.65-.05,3.63,0,7.25,0,10.88,0,.53,0,.73.12.83.68.53,2.9,1.14,5.79,1.69,8.68a1,1,0,0,0,.77.88c1.35.51,2.68,1.05,4,1.65a1.08,1.08,0,0,0,1.23-.09c2.57-1.74,5.15-3.44,7.68-5.13l8.63,8.65-.35.55c-1.59,2.4-3.18,4.8-4.8,7.18A1,1,0,0,0,61.6,24c.61,1.33,1.17,2.68,1.68,4a1,1,0,0,0,.88.78c3,.56,5.89,1.15,8.83,1.72.37.06.54.17.54.58,0,3.84,0,7.68,0,11.53a.88.88,0,0,1-.06.21l-4.67.93c-1.56.31-3.11.62-4.67.89a1,1,0,0,0-.82.75q-.78,2.06-1.68,4.05a1,1,0,0,0,.07,1.11c1.75,2.58,3.47,5.18,5.15,7.71L58.17,67c-2.46-1.64-5-3.32-7.56-5a1.22,1.22,0,0,0-1.42-.09c-1.25.59-2.55,1.11-3.85,1.59a1.06,1.06,0,0,0-.8.93c-.57,3-1.17,6-1.76,9a1.53,1.53,0,0,1-.11.27H30.56a1.53,1.53,0,0,1-.11-.27c-.59-3-1.19-6-1.76-9a1.07,1.07,0,0,0-.79-.94c-1.33-.49-2.64-1-3.92-1.62a1.13,1.13,0,0,0-1.29.07C20.13,63.61,17.55,65.31,15,67L6.38,58.35l.39-.61c1.6-2.4,3.19-4.8,4.8-7.18a.9.9,0,0,0,.1-1q-.95-2.1-1.77-4.24a.85.85,0,0,0-.75-.63c-.8-.14-1.6-.3-2.4-.46l-7-1.44ZM15.58,61.42l.6-.39c2.14-1.42,4.28-2.83,6.4-4.28a.94.94,0,0,1,1.21,0,22.3,22.3,0,0,0,7.39,3.1,1.41,1.41,0,0,1,1.31,1.45,17.26,17.26,0,0,0,.38,2l1.2,6h5.1c.55-2.81,1.11-5.59,1.63-8.37a1,1,0,0,1,.91-1,19.09,19.09,0,0,0,6.66-2.64,2.43,2.43,0,0,1,3.32.09c1.92,1.47,4,2.72,6,4l3.64-3.64-.4-.6c-1.42-2.13-2.83-4.28-4.28-6.4a.92.92,0,0,1,0-1.2,22.06,22.06,0,0,0,3.1-7.39,1.41,1.41,0,0,1,1.45-1.32,17.26,17.26,0,0,0,2-.38l6-1.19V34.2c-2.81-.55-5.59-1.11-8.37-1.63a1,1,0,0,1-1-.91,19.7,19.7,0,0,0-2.71-6.78,2.26,2.26,0,0,1,.09-3.07c1.48-2,2.77-4.09,4.1-6.08l-3.64-3.64-.6.39c-2.13,1.43-4.28,2.84-6.4,4.29a.94.94,0,0,1-1.21,0,22.32,22.32,0,0,0-7.39-3.11,1.41,1.41,0,0,1-1.31-1.44,16.86,16.86,0,0,0-.38-2c-.4-2-.8-4-1.2-6h-5.1C33.51,7,33,9.82,32.43,12.6a1,1,0,0,1-.91,1,19.17,19.17,0,0,0-6.66,2.64,2.43,2.43,0,0,1-3.32-.1c-1.92-1.46-4-2.72-6-4l-3.64,3.63c.11.17.25.39.4.6,1.42,2.14,2.83,4.29,4.29,6.41a.94.94,0,0,1,0,1.2,22.52,22.52,0,0,0-3.12,7.39,1.39,1.39,0,0,1-1.44,1.31,17.26,17.26,0,0,0-2,.38l-6,1.2v5.1c2.81.56,5.59,1.11,8.37,1.64a1,1,0,0,1,1,.91,19.12,19.12,0,0,0,2.64,6.65A2.43,2.43,0,0,1,16,51.83c-1.47,1.92-2.72,4-4,6Z"/><path class="cls-1" d="M36.65,21.63A15.13,15.13,0,1,1,21.48,36.72,15.18,15.18,0,0,1,36.65,21.63ZM47.43,36.74A10.81,10.81,0,1,0,36.62,47.57,10.85,10.85,0,0,0,47.43,36.74Z"/></g></svg>