<svg id="Camada_1" data-name="Camada 1" xmlns="http://www.w3.org/2000/svg" viewBox="0 0 299.97 395.71"><defs><style>.cls-1{fill:#285fae;}</style></defs><path class="cls-1" d="M214,0H0V395.71H300V85.94Zm6.22,36.29,43.43,43.43H220.25Zm-199,338.16V21.26H199V101h79.72V374.45Z"/><rect class="cls-1" x="67.59" y="127.47" width="164.78" height="14.1"/><rect class="cls-1" x="67.59" y="164.1" width="164.78" height="14.1"/><path class="cls-1" d="M155.1,336.75v15.62H144.58V337.18a58.77,58.77,0,0,1-27.22-6.63V310.6q4.19,3.39,12.46,6.27a56.94,56.94,0,0,0,14.76,3.31V294q-16.86-6.27-23-13.57a26.74,26.74,0,0,1-6.16-17.83,26.22,26.22,0,0,1,8-19.26q8-8,21.17-9.25v-13.4H155.1v13.11q15.19.72,22.67,4.9v19.44a54.32,54.32,0,0,0-22.67-7.49v27.29q15.77,5.68,22.61,13a24.93,24.93,0,0,1,6.84,17.68q0,12-7.63,19.26T155.1,336.75Zm-10.52-63V250.91q-10,1.8-10,10.44Q134.57,268.76,144.58,273.74Zm10.52,24.33V319.9q10.29-1.59,10.29-10.3Q165.39,302.53,155.1,298.07Z"/></svg>