<svg xmlns="http://www.w3.org/2000/svg" viewBox="0 0 79.65 57.95"><defs><style>.cls-1{fill:#28609b;}.cls-2,.cls-3{fill:none;stroke:#28609b;stroke-miterlimit:10;}.cls-2{stroke-width:4px;}.cls-3{stroke-width:3px;}</style></defs><g id="Camada_2" data-name="Camada 2"><path class="cls-1" d="M0,15.42c.1-.29.2-.58.29-.87a5.31,5.31,0,0,1,4.92-3.66c1.58,0,3.16,0,4.74,0h.92c0-1.77,0-3.44,0-5.12a7.76,7.76,0,0,1,.26-2,5.34,5.34,0,0,1,5-3.75H73.85a5.37,5.37,0,0,1,5.52,3.79,6.29,6.29,0,0,1,.27,1.83q0,17.9,0,35.78A5.4,5.4,0,0,1,74,47.05H72.4c0,1,0,1.88,0,2.78s0,2.08,0,3.11a5.34,5.34,0,0,1-5.15,5h-1c-19.86,0-39.72,0-59.57,0C3.47,58,1,56.92,0,53.39Zm14.48-.91v.84q0,12.87,0,25.74c0,1.74.59,2.35,2.31,2.35H73.71c1.73,0,2.33-.61,2.33-2.35V14.51ZM68.76,47.05H16.65a5.4,5.4,0,0,1-5.78-5.78V25.41H3.61V51.82c0,1.93.56,2.5,2.5,2.5H66.29a8.17,8.17,0,0,0,.86,0,1.7,1.7,0,0,0,1.6-1.62C68.79,50.84,68.76,49,68.76,47.05ZM14.48,10.8H76a1.21,1.21,0,0,0,0-.23c0-1.47,0-2.95,0-4.43,0-2-.55-2.54-2.53-2.54H17c-.26,0-.52,0-.78,0a1.77,1.77,0,0,0-1.72,1.77C14.45,7.17,14.48,9,14.48,10.8ZM10.81,21.66V14.49c-1.89,0-3.72,0-5.56,0A1.6,1.6,0,0,0,3.66,16c-.07,1.86,0,3.72,0,5.63Z"/><line class="cls-2" x1="18.46" y1="27.16" x2="32.56" y2="27.16"/><line class="cls-2" x1="18.46" y1="20.22" x2="25.33" y2="20.22"/><circle class="cls-3" cx="65.17" cy="34.31" r="4.78"/></g></svg>