<svg id="Camada_1" data-name="Camada 1" xmlns="http://www.w3.org/2000/svg" viewBox="0 0 453.48 390.96"><defs><style>.cls-1{fill:#285fae;}</style></defs><path class="cls-1" d="M234.85,167.43H212.53V144.9h22.32Z"/><path class="cls-1" d="M212.39,223.89V201.51h22.39v22.38Z"/><path class="cls-1" d="M234.78,280.58H212.47V258.06h22.31Z"/><path class="cls-1" d="M266.23,144.79h22.41v22.48H266.23Z"/><path class="cls-1" d="M288.73,201.57V224H266.34V201.57Z"/><path class="cls-1" d="M266.17,280.42V258.08H288.7v22.34Z"/><path class="cls-1" d="M342.55,144.91v21.55H320.21V144.91Z"/><path class="cls-1" d="M342.48,221.08H320.19v-21.6h22.29Z"/><path class="cls-1" d="M73.31,167.43H51V144.9H73.31Z"/><path class="cls-1" d="M50.85,223.89V201.51H73.24v22.38Z"/><path class="cls-1" d="M73.24,280.58H50.92V258.06H73.24Z"/><path class="cls-1" d="M104.69,144.79H127.1v22.48H104.69Z"/><path class="cls-1" d="M127.19,201.57V224H104.8V201.57Z"/><path class="cls-1" d="M104.63,280.42V258.08h22.53v22.34Z"/><path class="cls-1" d="M181.07,144.91v22.38h-22.4V144.91Z"/><path class="cls-1" d="M181,224H158.65V201.55H181Z"/><path class="cls-1" d="M158.51,280.43V258.07H181v22.36Z"/><path class="cls-1" d="M307.13,314.85H20V105.05h347V245a69.88,69.88,0,0,1,8-.5A68.21,68.21,0,0,1,387,245.63V16.27H318.48V0H298.64V16H261V0h-20V16h-37.6V0h-20V16H145.78V0H125.94V16H88.34V0h-20V16.18H0V335H310.93A67.65,67.65,0,0,1,307.13,314.85ZM20,36.44H68.19V53.29h20V36.39h37.59v16.9h20V36.39h37.6v16.9h19.84V36.43h37.76V53.29h19.79V36.43h37.61V53.29h20.11V36.47h48.42v48.2H20Z"/><path class="cls-1" d="M374.91,391a78.57,78.57,0,1,1,78.57-78.57A78.66,78.66,0,0,1,374.91,391Zm0-141.45a62.88,62.88,0,1,0,62.88,62.88A63,63,0,0,0,374.91,249.51Z"/><polygon class="cls-1" points="404.25 317.3 369.94 317.3 369.94 267.98 379.76 267.98 379.76 307.48 404.25 307.48 404.25 317.3"/></svg>