<svg xmlns="http://www.w3.org/2000/svg" viewBox="0 0 76.88 76.9"><defs><style>.cls-1{fill:#28609b;}</style></defs><g id="Camada_2" data-name="Camada 2"><path class="cls-1" d="M58.82,43.27,52.15,36.6l-.42-.44h0l.94-.93c1.07-1.06,2.12-2.1,3.16-3.16a.66.66,0,0,1,.81-.19A16.19,16.19,0,0,0,76.07,11.18c-.34-1-.86-1.35-1.24-1.44s-1,0-1.77.74L65.5,18.05l-.3.28-6.64-6.65.32-.33,2.5-2.51L66.5,3.72a1.75,1.75,0,0,0,.64-1.66c-.08-.37-.39-.89-1.33-1.22A15.75,15.75,0,0,0,58.92.1,16.17,16.17,0,0,0,45,20.22a.8.8,0,0,1-.29.94q-3.21,3.18-6.39,6.38l-2.23,2.23-.41.39-.06.06a3,3,0,0,0-.4-.54l-4.55-4.57C25.88,20.28,20.91,15.28,16,10.42a16.22,16.22,0,0,1-4.64-6.83.63.63,0,0,0-.13-.26L11,3.08a2.33,2.33,0,0,0-.64-.65c-1-.59-2-1.14-3-1.7L6.45.27a1.6,1.6,0,0,0-2.06.3Q2.49,2.51.55,4.41A1.61,1.61,0,0,0,.28,6.48c.1.19.21.37.33.56A6.43,6.43,0,0,1,1.2,8.17a6.24,6.24,0,0,0,4.49,4,6.67,6.67,0,0,1,2.94,2c7,7,13.94,14,21.06,21.08a2.36,2.36,0,0,0,.54.37l-.08.09L28.86,37Q24.92,41,21,44.91a.84.84,0,0,1-.59.12A16.82,16.82,0,0,0,14,44.66,16.21,16.21,0,0,0,.8,65.7c.35,1,.88,1.37,1.26,1.46a1.86,1.86,0,0,0,1.74-.72l4.87-4.86,2.7-2.7c.11-.12.23-.22.34-.33l6.67,6.65-2.27,2.27-5.6,5.58a2,2,0,0,0-.76,1.83c.14.57.66,1,1.55,1.26a17.06,17.06,0,0,0,5,.76,16.06,16.06,0,0,0,6.9-1.58,16.28,16.28,0,0,0,8.72-18.63,1.56,1.56,0,0,1-.06-.57c1.16-1.22,2.34-2.39,3.58-3.64l.77-.77,0,0a6.3,6.3,0,0,0,.47.53l5.55,5.56Q50.12,65.73,58,73.62A11,11,0,1,0,73.63,58.09Q66.24,50.67,58.82,43.27ZM28.66,56.62a13.1,13.1,0,0,1-10.18,17,11.59,11.59,0,0,1-4.19,0l.14-.15,6.86-6.87c1.16-1.16,1.17-1.82,0-3l-8.1-8.09c-1.11-1.11-1.78-1.11-2.89,0L3.47,62.43l-.22.21a12.84,12.84,0,0,1,1.38-8.06A13,13,0,0,1,20.11,48.2a2.33,2.33,0,0,0,2.62-.66C31.4,38.83,39.47,30.75,47.4,22.86A2.5,2.5,0,0,0,48.17,20,13.12,13.12,0,0,1,62.63,3.23l-.22.24L55.48,10.4c-1,1-1,1.75,0,2.78q4.07,4.08,8.15,8.15c1.13,1.13,1.8,1.13,3,0l6.86-6.87.2-.19c0,.16,0,.32,0,.48a16,16,0,0,1,.06,2.17A13.07,13.07,0,0,1,56.61,28.66a2,2,0,0,0-2.27.54Q41.79,41.79,29.19,54.35A2,2,0,0,0,28.66,56.62Zm3.52-23.11a3.26,3.26,0,0,0-.34-.44l-7.4-7.41q-7-7-13.94-14a7.19,7.19,0,0,0-3.34-2.2C5.45,9.09,4.32,8,3.55,5.94L6,3.5l.46.26c.63.34,1.27.69,1.9,1.07a1,1,0,0,1,.37.49C9.49,8,11.15,10,13.39,12.21c4.68,4.6,9.4,9.33,14,13.9l5.79,5.81.38.33Zm27.28,37.2-5.34-5.34Q46.44,57.68,38.75,50a1.71,1.71,0,0,0-.42-.3l2.51-2.5a2,2,0,0,0,.31.46Q51.43,58,61.72,68.26l1,1c.14.14.28.28.43.41a1.53,1.53,0,0,0,2.16-2.16c-.14-.16-.29-.32-.45-.47l-.15-.14L43.26,45.44c-.11-.11-.24-.21-.36-.31L45.16,43l.31.31L66.88,64.76l.15.15a3.89,3.89,0,0,0,.47.44,1.53,1.53,0,0,0,2.17-2.14,5.22,5.22,0,0,0-.46-.48l-2-2Q57.45,51,47.66,41.18a2.8,2.8,0,0,0-.38-.32l2.41-2.36.16.15,4.82,4.81Q62.94,51.74,71.21,60c3.22,3.23,3.47,7.79.6,11.09a7.89,7.89,0,0,1-11.11.79C60.27,71.53,59.86,71.11,59.46,70.71Z"/></g></svg>