<svg id="Camada_1" data-name="Camada 1" xmlns="http://www.w3.org/2000/svg" viewBox="0 0 454.03 365.03"><defs><style>.cls-1{fill:#285fae;}</style></defs><rect class="cls-1" x="246.88" y="62.49" width="26.34" height="239.91"/><rect class="cls-1" x="63.86" y="62.55" width="26.35" height="239.78"/><rect class="cls-1" x="368.89" y="62.5" width="26.29" height="239.72"/><rect class="cls-1" x="185.97" y="62.57" width="26.4" height="178.81"/><rect class="cls-1" x="125" y="62.57" width="26.46" height="178.81"/><rect class="cls-1" x="307.78" y="62.56" width="26.28" height="178.67"/><rect class="cls-1" x="185.93" y="275.9" width="26.49" height="26.2"/><rect class="cls-1" x="124.99" y="275.87" width="26.47" height="26.42"/><rect class="cls-1" x="307.87" y="275.86" width="26.29" height="26.53"/><polygon class="cls-1" points="90.53 0 0 0 0 90.53 25.84 90.53 25.84 25.84 90.53 25.84 90.53 0"/><polygon class="cls-1" points="454.03 90.53 454.03 0 367.02 0 367.02 25.84 428.18 25.84 428.18 90.53 454.03 90.53"/><polygon class="cls-1" points="0 274.5 0 365.03 90.53 365.03 90.53 339.19 25.84 339.19 25.84 274.5 0 274.5"/><polygon class="cls-1" points="428.18 274.5 428.18 339.19 367.02 339.19 367.02 365.03 454.03 365.03 454.03 274.5 428.18 274.5"/></svg>