<svg id="Camada_1" data-name="Camada 1" xmlns="http://www.w3.org/2000/svg" viewBox="0 0 446.52 397.17"><defs><style>.cls-1{fill:#285fae;}</style></defs><path class="cls-1" d="M202.76,149.62H186.33a29.93,29.93,0,0,1,5.81-18.81c7.68-10.69,18.27-15.83,31.36-14.25,13.88,1.67,23.54,9.53,27.92,22.84,4.23,12.86,1.19,24.47-8.25,34.17-4.27,4.39-9.06,8.29-13.47,12.56a5.83,5.83,0,0,0-1.56,3.55c-.2,3.51-.07,7-.07,10.73H211.31c0-3.64.39-7.38-.09-11-.9-6.75,1.37-11.56,6.85-15.65,4.89-3.65,9.23-8.09,13.59-12.41a16.43,16.43,0,0,0,3.12-18.84,16.7,16.7,0,0,0-31.24,2.92C203.19,146.77,203,148.15,202.76,149.62Z"/><path class="cls-1" d="M227.9,217.45V234H211.47V217.45Z"/><path class="cls-1" d="M233.06,347.85c0,4.1,0,8.74,0,13.38-.21,21-14.66,35.64-35.64,35.81-16.31.13-32.62.24-48.92-.06-18-.32-31.81-12.9-34-30.32-2.18-17.08,7.94-32.84,24.42-37.54a45.08,45.08,0,0,1,11.92-1.54c25.19-.14,50.38.13,75.57-.15C299,326.63,362,272.77,374.45,201.05,388.59,119.56,338.07,43,257.66,24,171.72,3.64,84.69,62.18,71,149.51a149.22,149.22,0,0,0,4.67,68.41c3,9.85-1,15.43-11.27,15.48-11,0-22,.07-32.94,0C12.68,233.26.2,220.85.09,202.07S0,164.3.09,145.41s12.61-31,31.48-31.1c8.23,0,16.47-.14,24.7.07,2.93.07,4.13-1,5.19-3.64C82.7,58.41,120.36,23.66,174.35,7.29,259.46-18.52,351.5,26.26,384.26,109c1.61,4.08,3.47,5.62,7.94,5.4,8.21-.43,16.46-.23,24.69-.08,16.25.29,29,12.47,29.33,28.73q.6,30.73,0,61.49c-.31,16.2-13,28.32-29.37,28.77-8.87.24-17.76.18-26.63,0-2.86-.05-4.16.89-5.25,3.55-22,53.72-60.89,88.62-116.76,104.25C257,344.29,245.2,345.59,233.06,347.85Zm-19.92-.22c-22.51,0-44.43-.22-66.34.12-7.57.12-12.92,7.05-12.78,14.91s5.8,14.13,13.54,14.25c17.25.27,34.51.24,51.76,0A13.61,13.61,0,0,0,213,364.43C213.61,359.06,213.14,353.57,213.14,347.63Z"/><path class="cls-1" d="M114.87,289.89l7-1.95q17-4.69,34-9.43a8.92,8.92,0,0,1,2.47-.37,7.6,7.6,0,0,1,3.88,1.11,117.73,117.73,0,0,0,47.91,14.81c3.86.38,9.89.42,12.3.42a118.22,118.22,0,0,0,34.43-5.36,139.71,139.71,0,0,0,24-10.18,121.57,121.57,0,0,0,42.9-40.49A140.54,140.54,0,0,0,339,203.16a120.46,120.46,0,0,0,3.63-29.3c0-2,0-5.73-.1-9.49a4.51,4.51,0,0,1-.08-.53C337.89,118,314.61,84.19,273.23,63.27a110.85,110.85,0,0,0-41.05-11.18,10.31,10.31,0,0,1-1.82-.37l-.73-.18-16.7,0c-1.79.31-3.76.59-5.73.87a114.91,114.91,0,0,0-12.46,2.23c-48.59,12.47-79.41,43.12-91.6,91.1-7.43,29.25-3.31,58.55,12.24,87.1a8.68,8.68,0,0,1,.5,6C112,253.23,108,267.61,104,282l-3.25,11.72s0,0,0,0l3.26-.89Zm43.35-200.3C186.9,67.71,224.38,62.36,258.5,75.28s58.67,41.76,65.67,77.14c11.24,56.82-25.54,112.18-82,123.41A109.87,109.87,0,0,1,220.76,278c-19.68,0-38.48-5.62-56.13-16.82a6.35,6.35,0,0,0-5.85-.88c-7.69,2.23-15.31,4.33-23.37,6.54l-10.62,2.93.48-1.74c.83-3,1.64-6,2.45-9,2.05-7.59,4-14.76,6.16-22a8.79,8.79,0,0,0-1.12-8.14A104.76,104.76,0,0,1,158.22,89.59Z"/></svg>