<svg id="Camada_1" data-name="Camada 1" xmlns="http://www.w3.org/2000/svg" viewBox="0 0 289.19 369.67"><defs><style>.cls-1{fill:#285fae;}</style></defs><path class="cls-1" d="M289.19,71l-71-71H41.43V42.82H0V369.67H247.77V326.85h41.42ZM223.35,30l35.87,35.87H223.35Zm6.86,322.13H17.56V60.38H41.43V326.85H230.21Zm41.42-42.82H59V17.56H205.79V83.4h65.84Z"/><path class="cls-1" d="M165.31,267.05A73.68,73.68,0,1,1,239,193.38,73.76,73.76,0,0,1,165.31,267.05Zm0-132.64a59,59,0,1,0,59,59A59,59,0,0,0,165.31,134.41Z"/><rect class="cls-1" x="157.77" y="159.87" width="15.09" height="67.02" transform="translate(-88.32 173.53) rotate(-45)"/><rect class="cls-1" x="131.8" y="185.83" width="67.02" height="15.09" transform="translate(-88.32 173.5) rotate(-44.99)"/></svg>