<svg id="Camada_1" data-name="Camada 1" xmlns="http://www.w3.org/2000/svg" viewBox="0 0 328.33 327.33"><defs><style>.cls-1{fill:#285fae;}</style></defs><path class="cls-1" d="M295.06,0c6.37,1.74,12.71,3.57,18,7.83,12,9.69,17.3,22.19,14.6,37.39-2.6,14.65-11.51,24.44-25.41,29.66-1.39.53-2.75.57-2.77,2.73-.2,19.67-9.39,34.86-23.86,47.35-11.82,10.2-25.46,17.53-39,25.11-12.66,7.09-25.42,14.08-37.53,22.05-6.39,4.21-11.92,10-17,15.83-5.57,6.32-8.16,14.25-8.18,22.76-.08,26.08,0,52.16,0,78.24,0,.6.06,1.2.11,2l28-28,13.38,13.48-50.89,50.9L113.16,276.1l12.92-13c9.13,9.19,18.44,18.56,28.51,28.68v-4.31c0-23.83-.44-47.68.14-71.5.41-16.59-6.49-29-18.81-39.09-13-10.75-28.12-18.18-42.83-26.19-13.71-7.46-27.43-14.88-39.42-25s-21-22.41-23.82-38.37C29.2,83.57,29,79.71,28.6,75.7a39.38,39.38,0,0,1-22-15.86C2.92,54.54,1.27,48.51,0,42.33V34c.21-.69.49-1.37.63-2.07C3,20.08,9.17,10.87,19.76,5.08c4.2-2.3,9-3.42,13.59-5.08H43.62a19.7,19.7,0,0,0,2.06.66c28.11,5.6,40.68,38.21,23.49,61a38.88,38.88,0,0,1-21,14.09,38.42,38.42,0,0,0,6.56,22.76,55.72,55.72,0,0,0,17,16.8c12.94,8.07,26.12,15.76,39.41,23.22,14.91,8.38,29.92,16.52,42.52,28.33.17.16.53.11.85.16V75.89c-.66-.27-1.24-.52-1.84-.75s-1.21-.4-1.8-.64C136.29,68.62,127.68,57.84,126,42.29c-1.57-14.78,4.16-27,16.45-35.28,4.88-3.3,11-4.73,16.59-7h10.27c.68.22,1.36.5,2.06.66,15,3.46,25.3,12.33,29.63,27.1,4.38,14.94.57,28.28-10.85,38.79C185.66,70.7,179.76,73.33,174,77v90.62c13.89-13.19,30.19-21.85,46.37-30.71,9.07-5,18.17-9.91,27-15.23,9.1-5.45,17.6-11.76,24.18-20.25a38.79,38.79,0,0,0,8.62-25.54c-1.06-.37-2-.65-2.87-1-14.74-5.68-23.71-16.28-25.59-32C250,28,255.58,15.64,267.94,7.18c4.94-3.38,11.2-4.84,16.85-7.18ZM164.36,19.25a19.23,19.23,0,1,0,19.07,19.29A19.29,19.29,0,0,0,164.36,19.25ZM57.74,38.63A19.23,19.23,0,1,0,38.46,57.7,19.23,19.23,0,0,0,57.74,38.63ZM289.81,57.7a19.23,19.23,0,1,0-19.14-19.21A19.33,19.33,0,0,0,289.81,57.7Z"/></svg>