<svg id="Camada_1" data-name="Camada 1" xmlns="http://www.w3.org/2000/svg" viewBox="0 0 500 333.14"><defs><style>.cls-1{fill:#285fae;}</style></defs><g id="Favoritos"><path class="cls-1" d="M229.7,265.73H58.18V220.5c.3-15.74,10.53-46.3,47.14-50.63l1.17-.07H177c16.28.88,47.42,12.35,52.65,49.56l.1,1.39Zm-151.52-20H209.7V221.48c-4.58-29.77-32.12-31.63-33.3-31.7l-69.29,0C79,193.46,78.2,219.57,78.18,220.69Z"/><path class="cls-1" d="M143.94,166.76a49.68,49.68,0,1,1,49.68-49.68A49.74,49.74,0,0,1,143.94,166.76Zm0-79.35a29.68,29.68,0,1,0,29.68,29.67A29.7,29.7,0,0,0,143.94,87.41Z"/><rect class="cls-1" x="272.59" y="94.4" width="155.05" height="26.66"/><rect class="cls-1" x="272.59" y="154.67" width="155.05" height="26.66"/><rect class="cls-1" x="272.59" y="214.95" width="155.05" height="26.66"/><path class="cls-1" d="M500,333.14H0V0H500ZM26.66,306.48H473.34V26.66H26.66Z"/></g></svg>