<svg id="Camada_1" data-name="Camada 1" xmlns="http://www.w3.org/2000/svg" viewBox="0 0 422.67 332.04"><defs><style>.cls-1{fill:#285fae;}</style></defs><path class="cls-1" d="M0,0V332H422.67V.09ZM21.79,22.13l378.86,0V74.79H21.79ZM400.73,310.07H21.79v-213H400.73Z"/><circle class="cls-1" cx="47.55" cy="48.46" r="10.08"/><path class="cls-1" d="M88.14,38.38A10.08,10.08,0,1,0,98.22,48.46,10.09,10.09,0,0,0,88.14,38.38Z"/><circle class="cls-1" cx="128.73" cy="48.46" r="10.08"/><path class="cls-1" d="M47.52,191.49l14.06-2.86a26.22,26.22,0,0,1,3.8-.72c1.74-.09,2.35-1,2.87-2.55a73.34,73.34,0,0,1,3.06-7.26,1.84,1.84,0,0,0-.13-2.08c-3.23-4.76-6.4-9.55-9.58-14.33-.29-.44-.56-.88-.8-1.25C66.55,154.71,72.24,149,78,143.23l5.24,3.47c3.47,2.31,7,4.6,10.39,7a1.72,1.72,0,0,0,2,.12c2.71-1.19,5.44-2.36,8.21-3.4a2.07,2.07,0,0,0,1.51-1.79c1.17-6.15,2.4-12.29,3.62-18.53.47,0,.88-.09,1.29-.09,7.24,0,14.48,0,21.71,0,1.05,0,1.46.24,1.66,1.35,1.06,5.79,2.26,11.55,3.36,17.33a2.07,2.07,0,0,0,1.55,1.76c2.68,1,5.34,2.08,7.94,3.29a2.15,2.15,0,0,0,2.45-.19c5.12-3.46,10.27-6.87,15.32-10.24l17.21,17.26c-.15.24-.41.68-.69,1.1-3.18,4.78-6.35,9.58-9.58,14.33a1.94,1.94,0,0,0-.17,2.21c1.2,2.65,2.33,5.34,3.35,8.07a2.07,2.07,0,0,0,1.76,1.54c5.87,1.12,11.74,2.3,17.61,3.43.73.14,1.07.34,1.07,1.16,0,7.67,0,15.33,0,23a2.25,2.25,0,0,1-.12.42l-9.33,1.86c-3.1.61-6.2,1.24-9.31,1.78a2,2,0,0,0-1.63,1.5c-1,2.72-2.15,5.42-3.35,8.07a2,2,0,0,0,.13,2.21c3.49,5.15,6.92,10.34,10.28,15.38l-17.29,17.28c-4.89-3.26-10-6.63-15.07-10.08a2.47,2.47,0,0,0-2.83-.18c-2.51,1.18-5.09,2.22-7.69,3.17a2.17,2.17,0,0,0-1.6,1.87c-1.13,6-2.33,12-3.51,18a3.33,3.33,0,0,1-.21.52H109.07a2.57,2.57,0,0,1-.21-.52c-1.19-6-2.38-12-3.52-18a2.13,2.13,0,0,0-1.58-1.87c-2.65-1-5.26-2-7.81-3.23a2.26,2.26,0,0,0-2.59.14c-5.1,3.47-10.25,6.87-15.27,10.22L60.83,246.64c.22-.33.5-.78.79-1.21,3.18-4.78,6.35-9.57,9.56-14.33a1.74,1.74,0,0,0,.19-1.95c-1.24-2.79-2.42-5.61-3.51-8.46a1.74,1.74,0,0,0-1.5-1.26c-1.6-.28-3.2-.6-4.79-.92l-14-2.86Zm31.67,61.28,1.19-.77c4.26-2.85,8.55-5.66,12.77-8.56a1.87,1.87,0,0,1,2.41,0,44.06,44.06,0,0,0,14.74,6.19,2.82,2.82,0,0,1,2.62,2.89,33.74,33.74,0,0,0,.75,3.94q1.2,6,2.39,12h10.19c1.1-5.61,2.21-11.15,3.25-16.7a2.09,2.09,0,0,1,1.82-1.94,38.55,38.55,0,0,0,13.28-5.25c2.46-1.67,4.23-1.65,6.62.18,3.83,2.93,8,5.42,11.89,8l7.26-7.26c-.22-.32-.5-.76-.79-1.19-2.84-4.27-5.65-8.55-8.55-12.78a1.84,1.84,0,0,1,0-2.4,44.35,44.35,0,0,0,6.19-14.74,2.81,2.81,0,0,1,2.88-2.62,34,34,0,0,0,4-.76l12-2.38V198.47c-5.62-1.1-11.15-2.21-16.7-3.25a2.1,2.1,0,0,1-2-1.82A39.26,39.26,0,0,0,162,179.88c-1.53-2.28-1.49-3.91.17-6.13,2.95-3.93,5.53-8.15,8.18-12.13l-7.26-7.25-1.19.78c-4.26,2.84-8.55,5.65-12.77,8.55a1.86,1.86,0,0,1-2.41,0A44.14,44.14,0,0,0,132,157.54a2.8,2.8,0,0,1-2.62-2.89,33.78,33.78,0,0,0-.76-3.94q-1.2-6-2.39-12H116.05c-1.1,5.62-2.21,11.15-3.26,16.7a2.07,2.07,0,0,1-1.81,1.94,38.49,38.49,0,0,0-13.28,5.26c-2.46,1.67-4.23,1.64-6.62-.19-3.83-2.92-8-5.42-11.89-8l-7.26,7.25.79,1.19c2.84,4.27,5.65,8.55,8.55,12.78a1.87,1.87,0,0,1,0,2.41,44.78,44.78,0,0,0-6.22,14.73,2.78,2.78,0,0,1-2.87,2.62,33.78,33.78,0,0,0-3.94.76l-12,2.39v10.18c5.61,1.1,11.15,2.21,16.7,3.25a2.09,2.09,0,0,1,1.94,1.82A38.24,38.24,0,0,0,80.14,227c1.67,2.47,1.64,4.24-.19,6.63-2.92,3.83-5.42,8-8,11.88Z"/><path class="cls-1" d="M121.22,173.38A30.19,30.19,0,1,1,91,203.5,30.28,30.28,0,0,1,121.22,173.38Zm21.49,30.15a21.57,21.57,0,1,0-21.56,21.6A21.63,21.63,0,0,0,142.71,203.53Z"/><rect class="cls-1" x="239.52" y="144.14" width="126.35" height="17.7"/><rect class="cls-1" x="239.52" y="194.71" width="126.35" height="17.7"/><rect class="cls-1" x="239.52" y="245.28" width="126.35" height="17.7"/></svg>