<svg xmlns="http://www.w3.org/2000/svg" viewBox="0 0 68.4 62.92"><defs><style>.cls-1{fill:#28609b;}</style></defs><g id="Camada_2" data-name="Camada 2"><path class="cls-1" d="M9.38,62.92v-1c0-4,0-8,0-12,0-.59-.13-.81-.77-.85A9.25,9.25,0,0,1,.06,40.28C0,32.92,0,25.56,0,18.2c0-2.78.08-5.56,0-8.33A9.56,9.56,0,0,1,9.87,0c9.9.08,19.8,0,29.7,0h19a9.36,9.36,0,0,1,8.54,4.72,9.24,9.24,0,0,1,1.27,4.89q0,15,0,29.92c0,5.6-4.12,9.6-9.8,9.61q-14.28,0-28.56,0a2.59,2.59,0,0,0-1.57.49Q19.33,56,10.18,62.38Zm4-7.69c.36-.23.58-.37.79-.52,4.36-3,8.71-6.08,13.09-9.09a2.63,2.63,0,0,1,1.43-.45c9.95,0,19.9,0,29.84,0,3.52,0,5.82-2.21,5.83-5.68q0-14.89,0-29.77a5.34,5.34,0,0,0-5.64-5.65Q34.2,4,9.67,4.06a6.44,6.44,0,0,0-2.6.57A5.21,5.21,0,0,0,4,9.75Q4,24.6,4,39.45c0,.22,0,.43,0,.64a5.31,5.31,0,0,0,5.07,5c1.16.06,2.32,0,3.49,0l.79.05Z"/><path class="cls-1" d="M50,14.25v3.89H18.34V14.25Z"/><path class="cls-1" d="M50,22.8v3.89H18.34V22.8Z"/><path class="cls-1" d="M18.34,35.24v-3.9H50v3.9Z"/></g></svg>