<svg id="Camada_1" data-name="Camada 1" xmlns="http://www.w3.org/2000/svg" viewBox="0 0 379.53 371.36"><defs><style>.cls-1{fill:#285fae;}</style></defs><path class="cls-1" d="M239.13,103.76l-5.51-1.08c-2.14-.42-4.28-.84-6.43-1.24-.25,0-.31-.07-.45-.44-.69-1.83-1.46-3.69-2.3-5.52-.13-.28-.12-.31,0-.54q2.6-3.84,5.15-7.7l2.24-3.45L219.08,71l-3,2q-4,2.67-8.05,5.39a.55.55,0,0,1-.7,0c-1.66-.77-3.44-1.52-5.46-2.26-.36-.14-.37-.2-.42-.46-.31-1.64-.64-3.28-1-4.92-.45-2.27-.9-4.54-1.32-6.81a1.86,1.86,0,0,0-2.07-1.73h0c-3.46,0-6.94,0-10.38,0h-4.33c-.22,0-.43,0-.66,0l-1,.08-.55,2.81c-.7,3.52-1.39,7-2,10.48-.06.32-.09.36-.41.48-1.94.73-3.84,1.55-5.61,2.33-.18.08-.24.08-.37,0q-2.81-1.91-5.62-3.76L160.41,71l-12.8,12.78,2.68,4.09c1.59,2.39,3.18,4.78,4.79,7.16.13.19.13.2,0,.45l-.12.25a50,50,0,0,0-2,4.75c-.33,1-.54,1-1.07,1.08a11.65,11.65,0,0,0-2,.34l-11,2.26v18l10.3,2.1c1.09.22,2.19.43,3.28.63.19,0,.19,0,.27.23.71,1.87,1.5,3.76,2.4,5.79l0,.37q-2.42,3.59-4.82,7.21l-2.62,4,12.81,12.81,3.3-2.19c2.56-1.7,5.15-3.43,7.73-5.18.27-.19.33-.23.79,0,1.67.78,3.43,1.5,5.37,2.22.34.12.38.17.45.53.61,3.28,1.26,6.55,1.9,9.82l.48,2.4a2,2,0,0,0,.21.57l.25.58h17l.66-.09.26-.55a2,2,0,0,0,.18-.5l.37-1.87c.69-3.46,1.37-6.91,2-10.37.07-.33.1-.39.47-.52,2-.74,3.72-1.46,5.28-2.19.49-.22.61-.18.95,0,2.59,1.76,5.2,3.5,7.75,5.19l3.15,2.09,12.85-12.84-1.82-2.74c-1.83-2.76-3.7-5.58-5.59-8.37-.14-.2-.16-.22,0-.54.78-1.74,1.53-3.55,2.29-5.53.14-.35.16-.36.36-.39,1.75-.31,3.49-.65,5.23-1l7.42-1.48.6-.25.18-.53.1-4.92q0-5.56,0-11.12A1.63,1.63,0,0,0,239.13,103.76Zm-49.34,30.8h-.08a21.44,21.44,0,0,1,0-42.88h.08a21.44,21.44,0,0,1,0,42.88Z"/><path class="cls-1" d="M379.53,371.36v0a17.27,17.27,0,0,1-1.15-2.45l-3.73-10.66c-14.25-40.6-29-82.58-43.32-123.91-.8-2.3-1.52-2.79-4-2.77-20,.09-40.27.08-59.9.07H242.9l.88-2.26c.12-.32.2-.55.26-.72a3.54,3.54,0,0,1,.45-.94c.74-1,1.49-2,2.25-3,20-26.62,33.81-50.38,43.56-74.78,11.88-29.74,11.33-59.15-1.64-87.4C270,21.77,225.64-3.73,180.87.45c-37.36,3.48-65.77,20.7-84.46,51.17C77.51,82.45,75.11,115.9,89.3,151c9.71,24.06,23.44,47.48,43.21,73.71.6.8,1.19,1.61,1.89,2.57l3.14,4.28h-26c-19.63,0-39.92,0-59.88-.07-2.38,0-3.06.41-3.79,2.51-10.35,29.85-21,60.16-31.23,89.47L6.82,351.68c-1.72,4.9-3.42,9.82-5.16,14.86L0,371.34H378.14ZM312.41,250.9c1.71,0,4.51,1.17,5.2,3,4,11,7.91,22.24,11.68,33.12l2,5.71a3.58,3.58,0,0,1,.13,1.43c0,.18,0,.39,0,.66v2L204.47,275.38l6.37-7.31c4.73-5.44,9.2-10.57,13.81-15.66,1.16-1.28,3.33-1.55,4.95-1.55C262.94,250.79,288.48,250.8,312.41,250.9Zm-199-93c-5.67-11.24-11.83-24.45-13.29-39-4.24-42.2,18.17-79,57.07-93.67,26.39-10,54.92-7.76,78.29,6.09,23.55,14,39.34,38.16,43.3,66.39,2.2,15.69-.39,31.72-7.94,49-10.3,23.63-24.74,47.09-45.44,73.83-7.41,9.58-15.08,18.7-23.2,28.36q-5.44,6.48-11,13.18l-1.24,1.5-1.28-1.46c-2.37-2.69-4.67-5.26-6.91-7.77-4.71-5.27-9.16-10.25-13.44-15.39C144.08,209.88,126.64,184.11,113.45,157.94Zm3,92.93c10.78,0,21.93,0,32.88-.06h.09a7.94,7.94,0,0,1,6.58,3.1c3.59,4.21,7.35,8.41,11,12.48,1.54,1.73,3.08,3.45,4.62,5.19.6.68,1.19,1.37,1.85,2.16l2.67,3.13-39,12.43q-13.38,4.27-26.73,8.57a8.08,8.08,0,0,1-2.49.5,4.41,4.41,0,0,1-3.81-2.3c-6.46-9.77-13.12-19.65-19.55-29.21q-3.89-5.75-7.75-11.52a6.85,6.85,0,0,1-.62-1.21c-.11-.25-.24-.54-.41-.9l-1.1-2.36Zm-89.23,101,31.23-89.28,60.06,89.28Zm286,.22c-54.54,0-111,0-166.44.07h0A8.2,8.2,0,0,1,139,348c-4.75-7.28-9.54-14.37-14.6-21.87q-2.81-4.15-5.66-8.4l-1.21-1.8,4.84-1.65c1.9-.66,3.71-1.28,5.53-1.86l12.91-4.14c15.15-4.86,30.81-9.88,46.29-14.6,3.28-1,7-.51,10.25,0q31,5.19,62,10.43,37.46,6.32,74.91,12.57c4.41.74,6.63,2.64,7.9,6.8,1.88,6.09,4,12.06,6.29,18.39.94,2.6,1.89,5.25,2.84,8l.77,2.21Z"/></svg>