<svg id="Camada_1" data-name="Camada 1" xmlns="http://www.w3.org/2000/svg" viewBox="0 0 296.55 388.55"><defs><style>.cls-1{fill:#285fae;}</style></defs><path class="cls-1" d="M152.26,327.84v12.42H143.9V328.19a46.74,46.74,0,0,1-21.63-5.27V307.06a33.14,33.14,0,0,0,9.9,5,45.5,45.5,0,0,0,11.73,2.64V293.84q-13.4-5-18.28-10.79a21.25,21.25,0,0,1-4.9-14.16,20.85,20.85,0,0,1,6.36-15.32q6.35-6.31,16.82-7.35V235.57h8.36V246q12.08.57,18,3.89v15.46a43.24,43.24,0,0,0-18-6v21.7q12.54,4.51,18,10.33a19.84,19.84,0,0,1,5.43,14q0,9.51-6.06,15.31T152.26,327.84Zm-8.36-50.08V259.61q-8,1.44-8,8.3Q136,273.8,143.9,277.76Zm8.36,19.34v17.35q8.19-1.26,8.19-8.19Q160.45,300.65,152.26,297.1Z"/><path class="cls-1" d="M104.71,378.69a101.53,101.53,0,0,0,32.83,9.19,11.22,11.22,0,0,1,2,.46l.74.21,16.48,0c1.81-.39,3.89-.76,6-1.13,4.33-.77,8.81-1.56,13.08-2.71,49.13-13.14,81.53-62.86,73.77-113.19-.69-4.45-1.7-8.8-2.76-13.4-.49-2.12-1-4.25-1.45-6.43L245,250h51.51V0H207.27V45.66H138.2V91.92H69.27v46H0V250.06H51.7l-.37,1.7c-.46,2.15-.95,4.27-1.43,6.38-1.06,4.6-2.07,8.95-2.77,13.41C40.25,315.05,64.47,360.11,104.71,378.69ZM227.48,66.39l0-46.33h48.81V230H261.14c-8.33,0-16.57,0-24.81,0a4.61,4.61,0,0,1-3.38-1.55c-2.66-3.52-5.68-7.49-5.66-13.71C227.51,165.23,227.49,115,227.48,66.39Zm-68.79-.26h48.24V202.07l-2.17-1.41a102.94,102.94,0,0,0-44.84-16.3l-1.23-.15Zm-69,46.09H138v71.94l-1.23.16a105.61,105.61,0,0,0-45,16.46l-2.17,1.42ZM56.94,230H20.51V158.24H69.29v59.14A12.49,12.49,0,0,1,56.94,230Zm91.41-26h.11a82.23,82.23,0,1,1-.1,164.46h-.06a82.23,82.23,0,1,1,0-164.46Z"/></svg>