<svg id="Camada_1" data-name="Camada 1" xmlns="http://www.w3.org/2000/svg" viewBox="0 0 199.14 331.63"><defs><style>.cls-1{fill:#285fae;}</style></defs><g id="Favoritos"><path class="cls-1" d="M160.33,0H38.8A38.84,38.84,0,0,0,0,38.8v254a38.84,38.84,0,0,0,38.8,38.79H160.33a38.84,38.84,0,0,0,38.81-38.79V38.8A38.85,38.85,0,0,0,160.33,0Zm22.4,55V260.92H16.4V55ZM38.8,16.4H160.33a22.42,22.42,0,0,1,22.39,22.18H16.41A22.42,22.42,0,0,1,38.8,16.4ZM160.33,315.23H38.8a22.42,22.42,0,0,1-22.4-22.39V277.32H182.73v15.52A22.41,22.41,0,0,1,160.33,315.23Z"/><circle class="cls-1" cx="99.57" cy="294.97" r="8.76"/><path class="cls-1" d="M163.48,172.09c-.29,1.29-.53,2.59-.89,3.86a22.77,22.77,0,0,1-22,16.53q-9.62,0-19.22,0a2,2,0,0,0-1.86.93q-8.11,10.68-16.3,21.31l-.3.39c-2,2.59-4.64,2.61-6.63,0-5.39-7-10.81-14-16.13-21.12A3.45,3.45,0,0,0,77,192.45c-6,.09-12.07,0-18.1,0a22.8,22.8,0,0,1-23.19-23.15q0-22,0-44.07a22.77,22.77,0,0,1,23.11-23.08h81.51a22.74,22.74,0,0,1,23,19.75,4.16,4.16,0,0,0,.21.71Zm-63.92,35c.41-.52.73-.9,1-1.29,4.75-6.21,9.53-12.4,14.24-18.64a5,5,0,0,1,4.44-2.2c7.08.07,14.15.05,21.22,0A15.3,15.3,0,0,0,156,169.47q0-22.15,0-44.31a15.29,15.29,0,0,0-15.53-15.48q-40.88,0-81.75,0a15.3,15.3,0,0,0-15.56,15.58q0,22.08,0,44.18a15,15,0,0,0,.12,2.12A15.3,15.3,0,0,0,58.87,185c6.95,0,13.9.06,20.84,0a5,5,0,0,1,4.73,2.39c.54.84,1.2,1.59,1.81,2.38Z"/><path class="cls-1" d="M99.6,130.25a16.54,16.54,0,0,1,7.94-4.83,16.22,16.22,0,0,1,18.07,7.39,16.06,16.06,0,0,1-2.21,19.48c-7,7.19-14.19,14.25-21.31,21.35a3.31,3.31,0,0,1-5.06,0c-7-7-14.11-14-21.09-21.1a16.21,16.21,0,0,1,22.83-23Z"/></g></svg>