<svg id="Camada_1" data-name="Camada 1" xmlns="http://www.w3.org/2000/svg" viewBox="0 0 328.33 328.11"><defs><style>.cls-1{fill:#285fae;}</style></defs><path class="cls-1" d="M165.83,219.32a71.28,71.28,0,0,0,63.62-19.51c24.78-24.26,49.61-49.31,73.63-73.53l3.74-3.78c18.14-18.29,24.85-40.6,20-66.33-5.87-30.91-34.37-55-66.28-56.12-21.7-.74-39.82,6.42-55.29,21.85q-36.68,36.6-73.29,73.25a93,93,0,0,1,13.57-2.32,105.14,105.14,0,0,1,21.27.9c2.74.37,4.2-.17,6.27-2.27,16.14-16.31,33.52-33.79,51.18-51.18,12-11.79,26.79-15.84,42.87-11.7A44.8,44.8,0,0,1,288,103.94c-15.74,16-31.92,32.13-47.58,47.7q-13.84,13.79-27.65,27.59c-14.17,14.2-30.36,18.39-48.14,12.45-16.8-5.62-27-18.1-30.4-37.14a4.61,4.61,0,0,0-1.33.62c-2.41,2-4.76,4.05-7.11,6.11-3.43,3-7,6.09-10.64,8.94-3,2.32-3.26,4.11-1.35,8.32A70.81,70.81,0,0,0,165.83,219.32Z"/><path class="cls-1" d="M20.09,207.43a71.17,71.17,0,0,0,101.2,100.09c18.28-17.81,36.58-36.21,54.28-54q10.58-10.64,21.16-21.24c-.42.06-.83.1-1.25.13l-5.88.37c-8.62.55-17.54,1.12-26.31,1-3.37,0-5.16.27-7.17,2.3l-8.66,8.76c-14.39,14.56-29.27,29.62-44.31,44C85.29,306,57.56,305.53,40,287.8c-17.21-17.42-17.57-45.52-.82-62.65C71,192.67,95.59,168.21,119,145.84A43.83,43.83,0,0,1,160.15,135a45.08,45.08,0,0,1,32,29.83c.77,2.37,1.27,4.74,1.82,7.25l.24,1.15.21-.19c7-5.89,14.25-12,21.13-18.22a5.88,5.88,0,0,0-.35-2.44c-10.89-25.6-30.34-40.49-57.79-44.25a73.5,73.5,0,0,0-10-.7c-18.07,0-34.28,7-48.31,21L84.76,142.64C63.47,163.79,41.46,185.66,20.09,207.43Z"/></svg>