<svg xmlns="http://www.w3.org/2000/svg" viewBox="0 0 66.56 66.56"><defs><style>.cls-1{fill:#28609b;}</style></defs><g id="Camada_2" data-name="Camada 2"><path class="cls-1" d="M34.56,45.34H28.22L24.4,39c-.28-.48-.55-.9-.82-1.28a6.76,6.76,0,0,0-.79-1,3.32,3.32,0,0,0-.84-.61A2.17,2.17,0,0,0,21,36H19.51v9.39H14V20.82h8.76q8.92,0,8.92,6.67a7,7,0,0,1-.39,2.37,6.67,6.67,0,0,1-1.11,2,7,7,0,0,1-1.74,1.5,9.06,9.06,0,0,1-2.26,1v.07a3.51,3.51,0,0,1,1.06.56,7.37,7.37,0,0,1,1,.89,12.52,12.52,0,0,1,.91,1.11c.29.39.56.77.8,1.15ZM19.51,25v6.82h2.4a4,4,0,0,0,2.85-1,3.45,3.45,0,0,0,1.1-2.59Q25.86,25,22,25Z"/><path class="cls-1" d="M45.57,45.2v3.71H43.08v-3.6a13.94,13.94,0,0,1-6.47-1.58V39a10,10,0,0,0,3,1.48,13.51,13.51,0,0,0,3.51.79V35.05q-4-1.48-5.47-3.23a6.34,6.34,0,0,1-1.46-4.23A6.19,6.19,0,0,1,38.05,23a8,8,0,0,1,5-2.2V17.64h2.49v3.11A12.77,12.77,0,0,1,51,21.92v4.61a13,13,0,0,0-5.39-1.78v6.48a13.77,13.77,0,0,1,5.37,3.09,5.94,5.94,0,0,1,1.62,4.2,6,6,0,0,1-1.81,4.57A8.62,8.62,0,0,1,45.57,45.2Zm-2.49-15V24.82c-1.59.29-2.38,1.11-2.38,2.48C40.7,28.48,41.49,29.46,43.08,30.24ZM45.57,36V41.2C47.2,41,48,40.14,48,38.76,48,37.64,47.2,36.73,45.57,36Z"/><path class="cls-1" d="M33.28,66.56A33.28,33.28,0,1,1,66.56,33.28,33.32,33.32,0,0,1,33.28,66.56ZM33.28,4A29.28,29.28,0,1,0,62.56,33.28,29.31,29.31,0,0,0,33.28,4Z"/></g></svg>