<svg id="Camada_1" data-name="Camada 1" xmlns="http://www.w3.org/2000/svg" viewBox="0 0 255.64 337.23"><defs><style>.cls-1{fill:#285fae;}</style></defs><path class="cls-1" d="M182.4,0H0V337.23H255.64v-264Zm5.3,30.93,37,37h-37ZM18.12,319.12v-301H169.59V86.05h67.93V319.12Z"/><polygon class="cls-1" points="90.98 112.53 64.24 139.27 54.31 129.34 43.72 139.93 64.24 160.44 101.56 123.12 90.98 112.53"/><polygon class="cls-1" points="90.98 172.23 64.24 198.97 54.31 189.04 43.72 199.62 64.24 220.14 101.56 182.82 90.98 172.23"/><polygon class="cls-1" points="90.98 231.93 64.24 258.66 54.31 248.73 43.72 259.32 64.24 279.83 101.56 242.51 90.98 231.93"/><rect class="cls-1" x="121.05" y="126.88" width="90.25" height="14.97"/><rect class="cls-1" x="121.05" y="186.58" width="90.25" height="14.97"/><rect class="cls-1" x="121.05" y="246.27" width="90.25" height="14.97"/></svg>