<svg id="Camada_1" data-name="Camada 1" xmlns="http://www.w3.org/2000/svg" viewBox="0 0 379.21 379.49"><defs><style>.cls-1{fill:#285fae;}</style></defs><path class="cls-1" d="M259.77,154.23q-34.14-19.65-68.22-39.38a3.57,3.57,0,0,0-3.93,0q-34.16,19.78-68.36,39.47a3.67,3.67,0,0,0-2,3.54q0,39.34,0,78.7a3.78,3.78,0,0,0,2.14,3.63q33.93,19.53,67.82,39.14a7.43,7.43,0,0,1,.82.56l.82.6h1.49l.84-.59a7.43,7.43,0,0,1,.82-.56q33.9-19.59,67.82-39.13a3.8,3.8,0,0,0,2.13-3.65q-.06-39.34,0-78.69A3.78,3.78,0,0,0,259.77,154.23Zm-64.08,47.34c0-.72.09-.89.66-1.21q20.79-11.94,41.54-23.94l11.71-6.75v16.15q0,22.74,0,45.48c0,.54-.08.63-.48.86q-20.7,11.91-41.38,23.85l-12.06,7V252.22Q195.71,226.89,195.69,201.57ZM243.45,159l-21.89,12.65q-15.52,8.94-31,17.93a1.43,1.43,0,0,1-1.82,0q-21.21-12.32-42.46-24.55L135.73,159l10.88-6.27q21-12.1,41.88-24.24a1.75,1.75,0,0,1,2.22,0q20.47,11.88,41,23.7Zm-60,42.2q0,25.16,0,50.3V263L130,232.14c-.49-.29-.49-.35-.49-.68q0-23.62,0-47.27V169.65l14.71,8.49q19.26,11.12,38.53,22.22C183.46,200.75,183.46,200.82,183.46,201.23Z"/><path class="cls-1" d="M135.61,7.91A189.62,189.62,0,0,0,31.47,85.07c-2.11,3.62-5.26,7.82-6,12l-.23-39.79H0v82H81.58V114H44A166.59,166.59,0,0,1,189.61,24.27a166.49,166.49,0,0,1,157.5,118.57l24.27-7.21C341.54,35.26,236-21.93,135.61,7.91Z"/><path class="cls-1" d="M353.93,281.89v41.4h25.28V240.42H297.57V265.7h37.65a166.57,166.57,0,0,1-145.61,89.75A166.46,166.46,0,0,1,32.11,236.88L7.84,244.09c30,100.34,135.59,157.39,235.93,127.42A189.57,189.57,0,0,0,349.89,291C352.51,286,353.61,283.59,353.93,281.89Z"/></svg>