<svg id="Camada_1" data-name="Camada 1" xmlns="http://www.w3.org/2000/svg" viewBox="0 0 392.38 322.17"><defs><style>.cls-1{fill:#285fae;}</style></defs><path class="cls-1" d="M260.31,158.45q-31.18-18-62.32-36a3.25,3.25,0,0,0-3.59,0Q163.2,140.55,132,158.53a3.36,3.36,0,0,0-1.86,3.23q.06,36,0,71.9a3.46,3.46,0,0,0,2,3.32q31,17.84,62,35.75a6.17,6.17,0,0,1,.74.52l.75.55h1.36l.77-.54a6.28,6.28,0,0,1,.75-.52q31-17.9,62-35.75a3.48,3.48,0,0,0,2-3.33q-.06-36,0-71.89A3.46,3.46,0,0,0,260.31,158.45Zm-58.54,43.24c0-.65.09-.8.61-1.1q19-10.9,38-21.87l10.7-6.17v14.76q0,20.77,0,41.55c0,.49-.07.57-.43.78q-18.92,10.88-37.81,21.79l-11,6.36V248Q201.8,224.83,201.77,201.69Zm43.64-38.86-20,11.55q-14.17,8.18-28.34,16.39a1.31,1.31,0,0,1-1.66,0Q176,179.56,156.62,168.39L147,162.84l9.93-5.74Q176.08,146,195.2,135a1.6,1.6,0,0,1,2,0q18.69,10.86,37.44,21.65Zm-54.8,38.56q-.06,23,0,45.94v10.44l-48.81-28.15c-.45-.26-.45-.32-.45-.61q0-21.6,0-43.19V172.53l13.43,7.76q17.6,10.16,35.21,20.3C190.61,201,190.61,201,190.61,201.39Z"/><path class="cls-1" d="M0,322.17V.07Q76.29.07,152.58,0c2.93,0,4.62.86,6.14,3.33,3.42,5.53,7.29,10.8,10.72,16.33,1.58,2.55,3.36,3.5,6.43,3.49q106-.13,212-.07h4.51V322.17ZM23.27,23.08V298.89H369.32V92.1h-4.89q-85.11,0-170.2.07a6.75,6.75,0,0,1-6.43-3.49C174,67.79,160.05,47,146.27,26.13A6.12,6.12,0,0,0,140.41,23q-56.53.15-113.08.07ZM187.2,46.16c4.67,7,9.09,13.38,13.2,19.94,1.49,2.38,3.18,3.05,5.89,3.05q79.53-.12,159.07-.06h3.95V46.16Z"/></svg>