<svg xmlns="http://www.w3.org/2000/svg" viewBox="0 0 70.17 60.09"><defs><style>.cls-1{fill:#28609b;}</style></defs><g id="Camada_2" data-name="Camada 2"><path class="cls-1" d="M70.17,52.92c-.3,0-.59,0-.89,0-9.82,0-19.65,0-29.47,0a.94.94,0,0,0-1.08.8,9.14,9.14,0,0,1-16.84,1.42,9.38,9.38,0,0,1-.65-1.58.72.72,0,0,0-.85-.63c-4.34,0-8.68,0-13,0H0V48.85H.78c6.46,0,12.93,0,19.39,0a1,1,0,0,0,1.15-.8,8.76,8.76,0,0,1,7.85-6.28A8.82,8.82,0,0,1,37.79,46a9.72,9.72,0,0,1,1,2.18.8.8,0,0,0,.91.65c4.94,0,9.87,0,14.81,0H69.42c.25,0,.5,0,.75,0Zm-35.08-2A5.09,5.09,0,1,0,30,56,5.13,5.13,0,0,0,35.09,50.92Z"/><path class="cls-1" d="M70.17,32.08c-3.5,0-7,0-10.49,0a.87.87,0,0,0-1,.71,9.08,9.08,0,0,1-11.75,5.93,8.67,8.67,0,0,1-5.67-5.79,1,1,0,0,0-1.18-.86q-19.58,0-39.14,0H0V28H.9q19.63,0,39.28,0a.89.89,0,0,0,1-.75,9.2,9.2,0,0,1,8.3-6.4,9.31,9.31,0,0,1,8.9,5.67c.2.46.22,1.16.56,1.35a3.76,3.76,0,0,0,1.66.11l9.53,0ZM49.91,35.13A5.09,5.09,0,1,0,44.84,30,5.11,5.11,0,0,0,49.91,35.13Z"/><path class="cls-1" d="M70.17,11.23l-6.45,0q-16.11,0-32.21,0a.87.87,0,0,0-1,.73,9.15,9.15,0,0,1-17.46,0,.89.89,0,0,0-1-.76c-3.74,0-7.49,0-11.24,0H0V7.13H.71c3.79,0,7.58,0,11.37,0a.83.83,0,0,0,1-.67A9.13,9.13,0,0,1,27.47,2a8.57,8.57,0,0,1,3.09,4.58.66.66,0,0,0,.74.59q19.37,0,38.73,0h.14Zm-48.36,3a5.09,5.09,0,0,0,0-10.17A5.15,5.15,0,0,0,16.69,9.2,5.12,5.12,0,0,0,21.81,14.28Z"/></g></svg>