<svg id="Camada_1" data-name="Camada 1" xmlns="http://www.w3.org/2000/svg" viewBox="0 0 301.57 380.4"><defs><style>.cls-1{fill:#285fae;}</style></defs><path class="cls-1" d="M209.7,165.15h-166V123h166ZM54,154.86h145.4V133.3H54Z"/><path class="cls-1" d="M209.7,197h-166V154.86h166ZM54,186.71h145.4V165.15H54Z"/><path class="cls-1" d="M209.7,228.84h-166V186.71h166ZM54,218.55h145.4V197H54Z"/><rect class="cls-1" x="121.57" y="128.16" width="10.29" height="100.68"/><path class="cls-1" d="M178.37,316.35H18V18H168.11V85.31h67.35V257.15a57,57,0,0,1,18,2.89V72.61L180.81,0H0V334.3H181.94A56.79,56.79,0,0,1,178.37,316.35Zm7.7-285.69,36.69,36.69H186.07Z"/><path class="cls-1" d="M235.46,380.4a66.12,66.12,0,1,1,66.11-66.11A66.18,66.18,0,0,1,235.46,380.4Zm0-119a52.91,52.91,0,1,0,52.91,52.91A53,53,0,0,0,235.46,261.38Z"/><polygon class="cls-1" points="260.15 319.17 230.52 319.17 230.52 276.91 240.29 276.91 240.29 309.4 260.15 309.4 260.15 319.17"/></svg>