<svg id="Camada_1" data-name="Camada 1" xmlns="http://www.w3.org/2000/svg" viewBox="0 0 430.95 372.98"><defs><style>.cls-1{fill:#285fae;}</style></defs><path class="cls-1" d="M211.41,217.27l4.51-4.4-6.37-.94c-15.07-2.21-30.66-4.5-46-6.59a10.88,10.88,0,0,1-9.15-6.54c-6.88-14.12-14-28.45-20.8-42.3l-2.6-5.26q-2.33,4.71-4.66,9.43c-6.24,12.65-12.69,25.72-19.14,38.54-1.25,2.47-4.21,5.26-7.44,5.79-8.8,1.45-17.74,2.73-26.39,4l-8.91,1.29L46.3,212.92l-.15,0C58.62,225,71.5,237.54,84,250c2.14,2.13,4,6.1,3.51,9.58-1.28,8.51-2.8,17.1-4.26,25.41q-1,5.5-1.92,11c-1,5.49-1.85,11-2.79,16.7L86,308.81c13-6.82,26.45-13.87,39.61-20.9a10.68,10.68,0,0,1,10.89,0c10.85,5.82,21.95,11.63,32.68,17.26l9.25,4.86,5,2.63-1.31-7.77c-2.45-14.43-5-29.36-7.65-44-.84-4.6.32-8.12,3.78-11.44C189.37,238.8,200.58,227.86,211.41,217.27ZM173,230.67c-1.51,1.59-3,3.19-4.48,4.78-3.58,3.85-7.27,7.82-11.16,11.53-1.35,1.3-1.56,2-1.15,4,1,5.12,1.88,10.23,2.77,15.64.38,2.26.76,4.57,1.16,6.95l1.55,9-8.12-4.25c-2.14-1.12-4.24-2.2-6.3-3.26-5-2.58-9.75-5-14.44-7.71-1.37-.79-1.94-.86-3.62.09-4.64,2.63-9.35,5.06-14.33,7.64-2.06,1.07-4.17,2.16-6.34,3.3l-8.11,4.27,1.53-9c.41-2.37.78-4.67,1.15-6.93.89-5.45,1.74-10.6,2.79-15.78.4-2,.19-2.69-1.18-4-3.83-3.64-7.36-7.42-11.1-11.42-1.54-1.64-3.1-3.31-4.71-5l-6.07-6.37,8.71-1.25c2.09-.3,4.17-.62,6.25-.94,5-.76,10.11-1.54,15.24-2.07,2.25-.23,3-.74,3.84-2.71,2.09-4.76,4.43-9.35,6.9-14.22,1-2.06,2.12-4.17,3.22-6.37l4.07-8.2,4,8.2c1.1,2.23,2.18,4.38,3.24,6.48,2.56,5.11,5,9.93,7.22,14.88a2.3,2.3,0,0,0,2.37,1.71c5.09.62,10.23,1.38,15.19,2.12l4.62.68c.87.13,1.67.33,2.31.49l.63.15,7.8,1.75Z"/><path class="cls-1" d="M279.55,186.42H254.7V161.35h24.85Z"/><path class="cls-1" d="M305.5,161.22h24.95v25H305.5Z"/><path class="cls-1" d="M381.49,161.35v24.92H356.55V161.35Z"/><path class="cls-1" d="M254.54,249.3V224.37h24.94V249.3Z"/><path class="cls-1" d="M330.55,224.44v24.94H305.62V224.44Z"/><path class="cls-1" d="M381.42,249.39H356.53v-25h24.89Z"/><path class="cls-1" d="M279.48,312.41H254.63V287.34h24.85Z"/><path class="cls-1" d="M305.44,312.24V287.37h25.08v24.87Z"/><path class="cls-1" d="M356.37,312.25v-24.9h25.09v24.9Z"/><path class="cls-1" d="M354.62,18.11V0H332.53V17.86H290.66V0H268.44V17.87H226.57V0H204.32V17.81h-42V0H140.23V17.82H98.37V0H76.12V18H0V373H431V18.11ZM22.21,40.58H75.93V59.33H98.17V40.52H140V59.33h22.24V40.52h41.86V59.33h22.1V40.56h42V59.33h22V40.56h41.88V59.33h22.4V40.61h53.91V94.28H22.21Zm386.37,310H22.22V117H408.58Z"/></svg>