<svg xmlns="http://www.w3.org/2000/svg" viewBox="0 0 68.4 62.92"><defs><style>.cls-1{fill:#28609b;}</style></defs><g id="Camada_2" data-name="Camada 2"><path class="cls-1" d="M65.43,29.63v3.65a4.08,4.08,0,0,0-.11.59,29.5,29.5,0,0,1-1.74,8.19,31.22,31.22,0,0,1-60-16.46A30.7,30.7,0,0,1,12,9.52,30.46,30.46,0,0,1,28.83.72C30,.52,31.2.4,32.38.24H36c.82.1,1.65.18,2.47.29A30.46,30.46,0,0,1,54.77,8,30.55,30.55,0,0,1,65,26.08C65.15,27.26,65.27,28.44,65.43,29.63Zm-33.09,0V20.42l-10.52-.73a48.57,48.57,0,0,0-1.29,9.91Zm15.55,0a47.08,47.08,0,0,0-1.28-9.82l-10.54.67v9.15Zm-41.26,0H16.69L18,19.13c-2.26-.56-4.59-1.12-6.9-1.72-.42-.11-.6-.05-.81.32a26.06,26.06,0,0,0-2.84,7.16C7.11,26.42,6.91,28,6.63,29.59Zm45.09,3.73L50.39,43.61,58,45.39a27.07,27.07,0,0,0,3.71-12.07ZM58,17.53l-7.56,1.69,1.3,10.35h10A27.06,27.06,0,0,0,58,17.53ZM36.07,42.3,46.59,43a48.67,48.67,0,0,0,1.29-9.69H36.07ZM21.81,43l10.53-.65v-9H20.53A48.85,48.85,0,0,0,21.81,43Zm-15-9.63a.93.93,0,0,0,0,.19A26.53,26.53,0,0,0,10.23,45c.08.14.44.21.63.17,1.94-.43,3.87-.9,5.81-1.34.48-.11,1-.18,1.34-.25L16.7,33.32ZM36.09,4.2V16.74l9.5-.57c-.3-.79-.53-1.45-.79-2.08a22.71,22.71,0,0,0-4.56-7.28A9.46,9.46,0,0,0,36.09,4.2ZM32.34,58.51V46l-9.43.56a24.6,24.6,0,0,0,4.89,8.93A10.13,10.13,0,0,0,32.34,58.51Zm0-54.31a8.32,8.32,0,0,0-3.22,1.74,20.93,20.93,0,0,0-5.52,8.2c-.26.61-.47,1.23-.75,2l9.49.63ZM36.08,46V58.6c5.4-2.25,7.49-7,9.51-12ZM12.6,48.43C14.44,51.49,22,57.05,24.26,57a31.82,31.82,0,0,1-5.12-9.94Zm31.62,8.62a26.74,26.74,0,0,0,11.56-8.46l-6.54-1.44A33.73,33.73,0,0,1,44.22,57.05ZM55.78,14.32A27.57,27.57,0,0,0,44.44,5.87c.92,1.56,1.92,3.07,2.74,4.67s1.45,3.34,2.21,5.11ZM24,5.89a27.16,27.16,0,0,0-11.27,8.26l6.41,1.41A33.28,33.28,0,0,1,24,5.89Z"/></g></svg>